<?xml version="1.0" encoding="iso-8859-1"?>
<!-- Uploaded to: SVG Repo, www.svgrepo.com, Generator: SVG Repo Mixer Tools -->
<svg height="800px" width="800px" version="1.1" id="Layer_1" xmlns="http://www.w3.org/2000/svg" xmlns:xlink="http://www.w3.org/1999/xlink" 
	 viewBox="0 0 512 512" xml:space="preserve">
<path style="fill:#89D2E8;" d="M414.116,512H67.765c-12.475,0-22.588-10.113-22.588-22.588V52.707
	c0-12.475,10.113-22.588,22.588-22.588s22.588,10.113,22.588,22.588v414.116h323.764c12.475,0,22.588,10.113,22.588,22.588
	C436.705,501.887,426.591,512,414.116,512z"/>
<path style="fill:#D5F4FA;" d="M460.207,157.2L309.619,6.617C305.383,2.379,299.638,0,293.648,0H97.882
	C85.407,0,75.294,10.114,75.294,22.588v436.705c0,12.475,10.113,22.588,22.588,22.588h346.352c12.475,0,22.588-10.113,22.588-22.588
	V173.175C466.822,167.183,464.443,161.438,460.207,157.2z"/>
<path style="fill:#C0FCFF;" d="M460.207,157.2L309.619,6.617C305.383,2.379,299.638,0,293.648,0H271.06v481.881h173.176
	c12.475,0,22.588-10.113,22.588-22.588V173.175C466.822,167.183,464.443,161.438,460.207,157.2z"/>
<path style="fill:#89D2E8;" d="M460.207,155.694L311.125,6.615c-6.462-6.46-16.178-8.391-24.617-4.896
	c-8.442,3.498-13.944,11.734-13.944,20.87v149.079c0,12.473,10.113,22.588,22.588,22.588h149.082
	c9.136,0,17.372-5.504,20.868-13.944C468.599,171.87,466.667,162.155,460.207,155.694z"/>
<g>
	<path style="fill:#C0FCFF;" d="M353.881,346.354H188.235c-12.475,0-22.588,10.113-22.588,22.588
		c0,12.475,10.113,22.588,22.588,22.588h165.647c12.475,0,22.588-10.113,22.588-22.588
		C376.47,356.467,366.356,346.354,353.881,346.354z"/>
	<path style="fill:#C0FCFF;" d="M188.235,301.177h165.647c12.475,0,22.588-10.113,22.588-22.588
		c0-12.475-10.113-22.588-22.588-22.588H188.235c-12.475,0-22.588,10.113-22.588,22.588
		C165.647,291.064,175.76,301.177,188.235,301.177z"/>
</g>
<g>
	<path style="fill:#89D2E8;" d="M353.881,346.354h-82.823v45.176h82.823c12.475,0,22.588-10.113,22.588-22.588
		C376.47,356.467,366.356,346.354,353.881,346.354z"/>
	<path style="fill:#89D2E8;" d="M376.47,278.589c0-12.475-10.113-22.588-22.588-22.588h-82.823v45.176h82.823
		C366.356,301.177,376.47,291.064,376.47,278.589z"/>
</g>
</svg>